<?xml version="1.0" encoding="utf-8"?>
<!-- Generator: Adobe Illustrator 18.1.1, SVG Export Plug-In . SVG Version: 6.00 Build 0)  -->
<svg version="1.1" xmlns="http://www.w3.org/2000/svg" xmlns:xlink="http://www.w3.org/1999/xlink" x="0px" y="0px"
	 viewBox="0 0 40 40" enable-background="new 0 0 40 40" xml:space="preserve">
<g id="Layer_1">
	<g>
		<g>
			<path fill="none" stroke="#000000" stroke-width="2" stroke-linecap="round" stroke-linejoin="round" stroke-miterlimit="10" d="
				M18.279,24.363l2.04,0.685l8.498,9.85c1.537,1.54,4.032,1.54,5.571,0l0,0c1.538-1.537,1.538-4.032-0.001-5.57l-10-8.584
				l-0.536-1.953L18.279,24.363z"/>
			
				<polyline fill="none" stroke="#000000" stroke-width="2" stroke-linecap="round" stroke-linejoin="round" stroke-miterlimit="10" points="
				22.154,20.488 12.1,10.436 10.978,7.33 7.207,4.148 3.637,7.718 6.821,11.495 10.01,12.534 20.06,22.583 			"/>
		</g>
		<path fill="none" stroke="#000000" stroke-width="2" stroke-linecap="round" stroke-linejoin="round" stroke-miterlimit="10" d="
			M14.654,22.065l-8.357,7.92c-1.113,1.113-1.113,2.916,0,4.028l0,0c1.113,1.113,2.916,1.113,4.028,0l6.531-7.067"/>
		<path fill="none" stroke="#000000" stroke-width="2" stroke-linecap="round" stroke-linejoin="round" stroke-miterlimit="10" d="
			M26.22,16.664l0.729-0.643c2.304,0.804,5.651,0.972,7.492-0.871c1.994-1.992,2.437-4.95,1.328-7.372l-3.919,3.918l-2.748-0.487
			L28.614,8.46l3.916-3.918c-2.421-1.11-5.379-0.666-7.37,1.327c-1.843,1.843-2.362,5.407-1.555,7.71l-2.24,2.126"/>
	</g>
</g>
<g id="labels" display="none">
</g>
</svg>
